<?xml version="1.0" encoding="utf-8"?>
<!-- Generator: Adobe Illustrator 25.4.1, SVG Export Plug-In . SVG Version: 6.00 Build 0)  -->
<svg version="1.1" id="Layer_1" xmlns="http://www.w3.org/2000/svg" xmlns:xlink="http://www.w3.org/1999/xlink" x="0px" y="0px"
     viewBox="0 0 297 28" style="enable-background:new 0 0 297 28;" xml:space="preserve">
<style type="text/css">
	.st0{fill:#FF0000;}
  .st1{fill:#231F20;}
</style>
  <path class="st0" d="M54.9,27.6H41.1V0.3h13.7V27.6z M27.5,2.4c0,0-1.7,3.3-1.9,3.6c-0.3,0.4-0.4,0.4-0.8,0.3c-0.4-0.3-1.8-1-1.8-1
	s1.2,5.4,1.2,5.9c0.1,0.4-0.3,0.8-0.8,0.4c-0.1-0.1-2.5-2.8-2.5-2.8s-0.6,1.3-0.7,1.5c-0.1,0.3-0.3,0.4-0.6,0.3
	c-0.4-0.1-2.6-0.6-2.6-0.6s0.8,2.6,1,3.1c0.1,0.3,0.3,0.6-0.3,0.8l-0.8,0.3c0,0,4.6,4,4.7,4.2c0.3,0.3,0.4,0.3,0.3,1
	c-0.3,0.7-0.4,1.5-0.4,1.5s4.3-1,4.7-1c0.4,0,0.8,0.1,0.8,0.6s-0.3,5.2-0.3,5.2h1.4c0,0-0.3-4.6-0.3-5.2c0-0.4,0.4-0.6,0.8-0.6
	c0.4,0.1,4.7,1,4.7,1s-0.3-1-0.4-1.5c-0.3-0.7,0-0.8,0.3-1c0.1-0.1,4.7-4.2,4.7-4.2l-0.8-0.3c-0.4-0.3-0.3-0.6-0.3-0.8
	c0.1-0.3,1-3.1,1-3.1s-2.2,0.4-2.6,0.6c-0.3,0.1-0.4-0.1-0.6-0.3c-0.1-0.3-0.7-1.5-0.7-1.5s-2.4,2.8-2.5,2.8c-0.4,0.3-1,0-0.8-0.4
	c0-0.4,1.2-5.9,1.2-5.9s-1.4,0.8-1.8,1c-0.3,0.3-0.6,0.3-0.8-0.3C29.2,5.6,27.5,2.4,27.5,2.4z M13.7,27.6V0.3H0v27.3H13.7z"/>
  <path class="st1" d="M88.8,11.4h-1.2l-0.3-1.3c-1.1,1.3-1.9,1.5-3.3,1.5c-3.3,0-5.3-2.6-5.3-5.9C78.6,2.6,80.5,0,83.8,0
	c2.5,0,4.4,1.3,4.7,3.8h-1.9c-0.1-1.5-1.5-2.2-2.9-2.2c-2.4,0-3.3,2.1-3.3,4.3c0,2.1,1,4.3,3.3,4.3c1.9,0,3.1-1.1,3.2-3.1H84V5.6
	h4.9V11.4z M90.4,7.4c0-2.5,1.5-4.3,4-4.3c2.5,0,4,1.8,4,4.3c0,2.5-1.5,4.3-4,4.3C91.9,11.7,90.4,9.9,90.4,7.4z M96.6,7.4
	c0-1.4-0.7-2.8-2.4-2.8c-1.7,0-2.4,1.4-2.4,2.8c0,1.4,0.7,2.9,2.4,2.9C95.9,10.3,96.6,8.8,96.6,7.4z M99.1,3.3h1.9l2.1,6.3l1.9-6.3
	h1.8l-2.8,8.1h-1.9L99.1,3.3z M109.4,7.8c0,1.3,0.7,2.4,2.2,2.4c1,0,1.7-0.4,1.9-1.4h1.7c-0.4,1.8-1.9,2.8-3.6,2.8
	c-2.5,0-3.9-1.8-3.9-4.3c0-2.4,1.5-4.3,3.9-4.3c2.5,0,4.2,2.4,3.7,4.7h-6V7.8z M113.6,6.7c0-1.1-0.8-2.1-2.1-2.1s-2.1,1-2.1,2.1
	H113.6z M116.8,3.3h1.7v1.5c0.1-0.8,1.2-1.8,2.4-1.8c0.4,0,0.6,0,0.7,0v1.7c-0.3,0-0.6-0.1-0.8-0.1c-1.2,0-2.2,1-2.2,2.8v3.9h-1.8
	V3.3H116.8z M122.6,3.3h1.7v1.3c0.6-0.8,1.4-1.4,2.5-1.4c1.8,0,2.9,1,2.9,2.8v5.6h-1.8V6.4c0-1.3-0.6-1.8-1.5-1.8
	c-1.2,0-1.9,1-1.9,2.1v4.7h-1.8V3.3z M131.5,3.3h1.7v1.1c0.6-0.8,1.2-1.4,2.5-1.4c1,0,1.9,0.4,2.2,1.4c0.6-0.8,1.4-1.4,2.5-1.4
	c1.7,0,2.6,0.7,2.6,2.8v5.6h-1.8V6.7c0-1.3-0.1-2.2-1.5-2.2c-1.2,0-1.7,0.8-1.7,2.2v4.7h-1.8V6.3c0-1.1-0.3-1.7-1.4-1.7
	c-1,0-1.8,0.7-1.8,2.1v4.9h-1.8V3.3H131.5z M146.5,7.8c0,1.3,0.7,2.4,2.2,2.4c1,0,1.7-0.4,1.9-1.4h1.7c-0.4,1.8-1.9,2.8-3.6,2.8
	c-2.5,0-3.9-1.8-3.9-4.3c0-2.4,1.5-4.3,3.9-4.3c2.5,0,4.2,2.4,3.8,4.7h-6V7.8z M150.6,6.7c0-1.1-0.8-2.1-2.1-2.1
	c-1.2,0-2.1,1-2.1,2.1H150.6z M153.8,3.3h1.7v1.3c0.6-0.8,1.4-1.4,2.5-1.4c1.8,0,2.9,1,2.9,2.8v5.6h-1.8V6.4c0-1.3-0.6-1.8-1.5-1.8
	c-1.2,0-1.9,1-1.9,2.1v4.7h-1.8V3.3z M162,3.3h1.4V1h1.8v2.4h1.7v1.4h-1.7v4.3c0,0.7,0,1.1,0.8,1.1c0.3,0,0.6,0,0.7,0v1.4
	c-0.4,0-0.8,0.1-1.1,0.1c-1.8,0-2.2-0.7-2.2-2.1V4.7H162V3.3z M78.4,23.5c0-2.5,1.5-4.3,4-4.3c2.6,0,4,1.8,4,4.3s-1.5,4.3-4,4.3
	C80,27.9,78.4,26,78.4,23.5z M84.8,23.5c0-1.4-0.7-2.8-2.4-2.8c-1.5,0-2.4,1.4-2.4,2.8c0,1.4,0.7,2.9,2.4,2.9
	C84.1,26.5,84.8,24.9,84.8,23.5z M87.3,19.5h1.4v-0.7c0-2.1,1.1-2.4,2.2-2.4c0.6,0,1,0,1.2,0.1V18c-0.3,0-0.4-0.1-0.8-0.1
	c-0.4,0-0.8,0.1-0.8,0.8v0.8H92v1.4h-1.5v6.8h-1.8v-6.8h-1.4V19.5z M105.1,19.9c-0.3-1.3-1.1-2.2-2.8-2.2c-2.4,0-3.3,2.1-3.3,4.3
	c0,2.1,1,4.3,3.3,4.3c1.7,0,2.6-1.3,2.8-2.9h1.9c-0.1,2.6-1.9,4.5-4.7,4.5C99,27.9,97,25.2,97,22c0-3.2,1.9-5.9,5.3-5.9
	c2.5,0,4.4,1.4,4.7,3.8H105.1z M115.4,25.8c0,0.4,0.1,0.6,0.4,0.6c0.1,0,0.3,0,0.4,0v1.3c-0.3,0.1-0.8,0.1-1.1,0.1
	c-0.7,0-1.2-0.3-1.4-1c-0.7,0.7-1.8,1-2.8,1c-1.4,0-2.8-0.8-2.8-2.4c0-2.1,1.7-2.4,3.1-2.5c1.2-0.3,2.4-0.1,2.4-1.1
	c0-1-1-1.1-1.7-1.1c-1,0-1.7,0.4-1.8,1.3h-1.8c0.1-2.1,1.9-2.6,3.6-2.6c1.5,0,3.2,0.7,3.2,2.4v4.2H115.4z M113.7,23.5
	c-0.6,0.4-1.4,0.3-2.2,0.4c-0.8,0.1-1.4,0.4-1.4,1.4c0,0.8,1,1,1.7,1c0.8,0,1.9-0.4,1.9-1.5V23.5z M117.3,19.5h1.7v1.3
	c0.6-0.8,1.4-1.4,2.5-1.4c1.8,0,2.9,1,2.9,2.8v5.6h-1.8v-5.2c0-1.3-0.6-1.8-1.5-1.8c-1.2,0-1.9,1-1.9,2.1v4.7h-1.8V19.5z
	 M132.9,25.8c0,0.4,0.1,0.6,0.4,0.6c0.1,0,0.3,0,0.4,0v1.3c-0.3,0.1-0.8,0.1-1.1,0.1c-0.7,0-1.2-0.3-1.4-1c-0.7,0.7-1.8,1-2.8,1
	c-1.4,0-2.8-0.8-2.8-2.4c0-2.1,1.7-2.4,3.1-2.5c1.2-0.3,2.4-0.1,2.4-1.1c0-1-1-1.1-1.7-1.1c-1,0-1.7,0.4-1.8,1.3h-1.8
	c0.1-2.1,1.9-2.6,3.6-2.6c1.5,0,3.2,0.7,3.2,2.4v4.2H132.9z M131.1,23.5c-0.6,0.4-1.4,0.3-2.2,0.4c-0.8,0.1-1.4,0.4-1.4,1.4
	c0,0.8,1,1,1.7,1c0.8,0,1.9-0.4,1.9-1.5V23.5z M142.3,27.6h-1.7v-1.1c-0.4,1-1.5,1.3-2.5,1.3c-2.5,0-3.8-2-3.8-4.3
	c0-2.9,1.8-4.2,3.5-4.2c1,0,2.1,0.4,2.6,1.3v-4.2h1.8V27.6z M138.4,26.5c1.5,0,2.2-1.4,2.2-2.9c0-1.8-0.8-2.8-2.2-2.8
	c-1.7,0-2.2,1.5-2.2,2.9S136.9,26.5,138.4,26.5z M151.1,25.8c0,0.4,0.1,0.6,0.4,0.6c0.1,0,0.3,0,0.4,0v1.3c-0.3,0.1-0.8,0.1-1.1,0.1
	c-0.7,0-1.2-0.3-1.4-1c-0.7,0.7-1.8,1-2.8,1c-1.4,0-2.8-0.8-2.8-2.4c0-2.1,1.7-2.4,3.1-2.5c1.2-0.3,2.4-0.1,2.4-1.1
	c0-1-1-1.1-1.7-1.1c-1,0-1.7,0.4-1.8,1.3H144c0.1-2.1,1.9-2.6,3.6-2.6c1.5,0,3.2,0.7,3.2,2.4v4.2H151.1z M149.3,23.5
	c-0.6,0.4-1.4,0.3-2.2,0.4c-0.8,0.1-1.4,0.4-1.4,1.4c0,0.8,1,1,1.7,1c0.8,0,1.9-0.4,1.9-1.5V23.5z M201.2,11.4h-1.2l-0.3-1.3
	c-1.1,1.3-1.9,1.5-3.3,1.5c-3.3,0-5.3-2.6-5.3-5.9S193,0,196.3,0c2.5,0,4.4,1.3,4.7,3.8h-1.9c-0.1-1.5-1.5-2.2-2.9-2.2
	c-2.4,0-3.3,2.1-3.3,4.3c0,2.1,1,4.3,3.3,4.3c1.9,0,3.1-1.1,3.2-3.1h-2.9V5.6h4.7V11.4z M202.9,7.4c0-2.5,1.5-4.3,4-4.3
	c2.5,0,4,1.8,4,4.3c0,2.5-1.5,4.3-4,4.3C204.4,11.7,202.9,9.9,202.9,7.4z M209.1,7.4c0-1.4-0.7-2.8-2.4-2.8c-1.5,0-2.4,1.4-2.4,2.8
	c0,1.4,0.7,2.9,2.4,2.9C208.4,10.3,209.1,8.8,209.1,7.4z M219.5,11.4h-1.8v-1.1c-0.4,0.8-1.4,1.4-2.4,1.4c-2.1,0-3.1-1.1-3.1-3.2
	V3.3h1.8v5c0,1.4,0.6,2,1.5,2c1.5,0,1.9-1,1.9-2.2V3.3h1.8L219.5,11.4z M220.6,3.3h1.9l2.1,6.3l1.9-6.3h1.8l-2.9,8.1h-1.9L220.6,3.3
	z M230.6,7.8c0,1.3,0.7,2.4,2.2,2.4c1,0,1.7-0.4,1.9-1.4h1.7c-0.4,1.8-1.9,2.8-3.6,2.8c-2.5,0-3.9-1.8-3.9-4.3
	c0-2.4,1.5-4.3,3.9-4.3c2.5,0,4.2,2.4,3.8,4.7h-6V7.8z M234.8,6.7c0-1.1-0.8-2.1-2.1-2.1s-2.1,1-2.1,2.1H234.8z M238,3.3h1.7v1.5
	c0.1-0.8,1.2-1.8,2.4-1.8c0.4,0,0.6,0,0.7,0v1.7c-0.3,0-0.6-0.1-0.8-0.1c-1.2,0-2.2,1-2.2,2.8v3.9h-1.8L238,3.3z M243.6,3.3h1.7v1.3
	c0.6-0.8,1.4-1.4,2.5-1.4c1.8,0,2.9,1,2.9,2.8v5.6h-1.8V6.4c0-1.3-0.6-1.8-1.5-1.8c-1.2,0-1.9,1-1.9,2.1v4.7h-1.8V3.3z M254,7.8
	c0,1.3,0.7,2.4,2.2,2.4c1,0,1.7-0.4,1.9-1.4h1.7c-0.4,1.8-1.9,2.8-3.6,2.8c-2.5,0-3.9-1.8-3.9-4.3c0-2.4,1.5-4.3,3.9-4.3
	c2.5,0,4.2,2.4,3.7,4.7h-6V7.8z M258.1,6.7c0-1.1-0.8-2.1-2.1-2.1s-2.1,1-2.1,2.1H258.1z M261.2,3.3h1.7v1.1
	c0.6-0.8,1.2-1.4,2.5-1.4c1,0,1.9,0.4,2.2,1.4c0.6-0.8,1.4-1.4,2.5-1.4c1.7,0,2.6,0.7,2.6,2.8v5.6h-1.8V6.7c0-1.3-0.1-2.2-1.5-2.2
	c-1.2,0-1.7,0.8-1.7,2.2v4.7h-1.8V6.3c0-1.1-0.3-1.7-1.4-1.7c-1,0-1.8,0.7-1.8,2.1v4.9h-1.8V3.3H261.2z M276.2,7.8
	c0,1.3,0.7,2.4,2.2,2.4c1,0,1.7-0.4,1.9-1.4h1.7c-0.4,1.8-1.9,2.8-3.6,2.8c-2.5,0-3.9-1.8-3.9-4.3c0-2.4,1.5-4.3,3.9-4.3
	c2.5,0,4.2,2.4,3.8,4.7h-6V7.8z M280.4,6.7c0-1.1-0.8-2.1-2.1-2.1s-2.1,1-2.1,2.1H280.4z M283.6,3.3h1.7v1.3
	c0.6-0.8,1.4-1.4,2.5-1.4c1.8,0,2.9,1,2.9,2.8v5.6h-1.8V6.4c0-1.3-0.6-1.8-1.5-1.8c-1.2,0-1.9,1-1.9,2.1v4.7h-1.8V3.3z M291.6,3.3
	h1.4V1h1.8v2.4h1.7v1.4h-1.7v4.3c0,0.7,0,1.1,0.8,1.1c0.3,0,0.6,0,0.7,0v1.4c-0.4,0-0.8,0.1-1.1,0.1c-1.8,0-2.2-0.7-2.2-2.1V4.7
	h-1.4V3.3z M198.8,27.6h-1.7v-1.1c-0.4,1-1.5,1.3-2.5,1.3c-2.5,0-3.7-2-3.7-4.3c0-2.9,1.7-4.2,3.5-4.2c1,0,2.1,0.4,2.6,1.3v-4.2h1.8
	V27.6z M194.8,26.5c1.5,0,2.2-1.4,2.2-2.9c0-1.8-0.8-2.8-2.2-2.8c-1.7,0-2.2,1.5-2.2,2.9S193.3,26.5,194.8,26.5z M207.9,27.6h-1.8
	v-1.1c-0.4,0.8-1.4,1.4-2.4,1.4c-2.1,0-3.1-1.1-3.1-3.2v-5.2h1.8v5c0,1.4,0.6,2,1.5,2c1.5,0,1.9-1,1.9-2.2v-4.7h1.8v8.1H207.9z
	 M221.9,19.9c-0.3-1.3-1.1-2.2-2.8-2.2c-2.4,0-3.3,2.1-3.3,4.3c0,2.1,1,4.3,3.3,4.3c1.8,0,2.6-1.3,2.8-2.9h1.9
	c-0.1,2.6-2.1,4.6-4.7,4.6c-3.3,0-5.3-2.6-5.3-5.9c0-3.2,1.9-5.9,5.3-5.9c2.5,0,4.4,1.4,4.7,3.8h-1.9V19.9z M232,25.8
	c0,0.4,0.1,0.6,0.4,0.6c0.1,0,0.3,0,0.4,0v1.3c-0.3,0.1-0.8,0.1-1.1,0.1c-0.7,0-1.2-0.3-1.4-1c-0.7,0.7-1.8,1-2.8,1
	c-1.4,0-2.8-0.8-2.8-2.4c0-2.1,1.7-2.4,3.1-2.5c1.2-0.3,2.4-0.1,2.4-1.1c0-1-1-1.1-1.7-1.1c-1,0-1.7,0.4-1.8,1.3h-1.8
	c0.1-2.1,1.9-2.6,3.6-2.6c1.5,0,3.2,0.7,3.2,2.4v4.2H232z M230.2,23.5c-0.6,0.4-1.4,0.3-2.2,0.4c-0.8,0.1-1.4,0.4-1.4,1.4
	c0,0.8,1,1,1.7,1c0.8,0,1.9-0.4,1.9-1.5V23.5z M234.1,19.5h1.7v1.3c0.6-0.8,1.4-1.4,2.5-1.4c1.8,0,2.9,1,2.9,2.8v5.6h-1.8v-5.2
	c0-1.3-0.6-1.8-1.5-1.8c-1.2,0-1.9,1-1.9,2.1v4.7h-1.8V19.5z M249.5,25.8c0,0.4,0.1,0.6,0.4,0.6c0.1,0,0.3,0,0.4,0v1.3
	c-0.3,0.1-0.8,0.1-1.1,0.1c-0.7,0-1.2-0.3-1.4-1c-0.7,0.7-1.8,1-2.8,1c-1.4,0-2.8-0.8-2.8-2.4c0-2.1,1.7-2.4,3.1-2.5
	c1.2-0.3,2.4-0.1,2.4-1.1c0-1-1-1.1-1.7-1.1c-1,0-1.7,0.4-1.8,1.3h-1.8c0.1-2.1,1.9-2.6,3.6-2.6c1.5,0,3.2,0.7,3.2,2.4v4.2H249.5z
	 M247.7,23.5c-0.6,0.4-1.4,0.3-2.2,0.4c-0.8,0.1-1.4,0.4-1.4,1.4c0,0.8,1,1,1.7,1c0.8,0,1.9-0.4,1.9-1.5V23.5z M259.1,27.6h-1.7
	v-1.1c-0.4,1-1.5,1.3-2.5,1.3c-2.5,0-3.8-2-3.8-4.3c0-2.9,1.8-4.2,3.5-4.2c1,0,2.1,0.4,2.6,1.3v-4.2h1.8V27.6z M255.1,26.5
	c1.5,0,2.2-1.4,2.2-2.9c0-1.8-0.8-2.8-2.2-2.8c-1.7,0-2.2,1.5-2.2,2.9S253.6,26.5,255.1,26.5z M267.7,25.8c0,0.4,0.1,0.6,0.4,0.6
	c0.1,0,0.3,0,0.4,0v1.3c-0.3,0.1-0.8,0.1-1.1,0.1c-0.7,0-1.2-0.3-1.4-1c-0.7,0.7-1.8,1-2.8,1c-1.4,0-2.8-0.8-2.8-2.4
	c0-2.1,1.7-2.4,3.1-2.5c1.2-0.3,2.4-0.1,2.4-1.1c0-1-1-1.1-1.7-1.1c-1,0-1.7,0.4-1.8,1.3h-1.8c0.1-2.1,1.9-2.6,3.6-2.6
	c1.5,0,3.2,0.7,3.2,2.4v4.2H267.7z M265.9,23.5c-0.6,0.4-1.4,0.3-2.2,0.4c-0.8,0.1-1.4,0.4-1.4,1.4c0,0.8,1,1,1.7,1
	c0.8,0,1.9-0.4,1.9-1.5V23.5z"/>
</svg>
