<?xml version="1.0" encoding="UTF-8" standalone="no"?>
<!DOCTYPE svg PUBLIC "-//W3C//DTD SVG 1.1//EN"
 "http://www.w3.org/Graphics/SVG/1.1/DTD/svg11.dtd">
<!-- Generated by graphviz version 5.0.0 (20220707.1540)
 -->
<!-- Title: dependencies Pages: 1 -->
<svg width="1081pt" height="247pt"
 viewBox="0.00 0.00 1081.00 246.80" xmlns="http://www.w3.org/2000/svg" xmlns:xlink="http://www.w3.org/1999/xlink">
<g id="graph0" class="graph" transform="scale(1 1) rotate(0) translate(4 242.8)">
<title>dependencies</title>
<polygon fill="white" stroke="transparent" points="-4,4 -4,-242.8 1077,-242.8 1077,4 -4,4"/>
<text text-anchor="middle" x="536.5" y="-8.2" font-family="sans-serif" font-size="14.00">dependencies</text>
<g id="clust1" class="cluster">
<title>cluster_IrccDsAngularFormComponentsModule</title>
<polygon fill="none" stroke="black" stroke-dasharray="1,5" points="8,-32.8 8,-230.8 1065,-230.8 1065,-32.8 8,-32.8"/>
</g>
<g id="clust11" class="cluster">
<title>cluster_IrccDsAngularFormComponentsModule_exports</title>
<polygon fill="none" stroke="black" points="16,-170.8 16,-222.8 1057,-222.8 1057,-170.8 16,-170.8"/>
</g>
<g id="clust2" class="cluster">
<title>cluster_IrccDsAngularFormComponentsModule_declarations</title>
<polygon fill="none" stroke="black" points="27,-40.8 27,-92.8 1045,-92.8 1045,-40.8 27,-40.8"/>
</g>
<!-- CheckboxComponent -->
<g id="node1" class="node">
<title>CheckboxComponent</title>
<polygon fill="#ffffb3" stroke="black" points="1037.1,-84.8 898.9,-84.8 898.9,-48.8 1037.1,-48.8 1037.1,-84.8"/>
<text text-anchor="middle" x="968" y="-62.6" font-family="Times,serif" font-size="14.00">CheckboxComponent</text>
</g>
<!-- IrccDsAngularFormComponentsModule -->
<g id="node8" class="node">
<title>IrccDsAngularFormComponentsModule</title>
<polygon fill="#8dd3c7" stroke="black" points="656.86,-149.8 653.86,-153.8 632.86,-153.8 629.86,-149.8 413.14,-149.8 413.14,-113.8 656.86,-113.8 656.86,-149.8"/>
<text text-anchor="middle" x="535" y="-127.6" font-family="Times,serif" font-size="14.00">IrccDsAngularFormComponentsModule</text>
</g>
<!-- CheckboxComponent&#45;&gt;IrccDsAngularFormComponentsModule -->
<g id="edge1" class="edge">
<title>CheckboxComponent&#45;&gt;IrccDsAngularFormComponentsModule</title>
<path fill="none" stroke="black" d="M903.08,-85.07C903.08,-103.36 903.08,-128.8 903.08,-128.8 903.08,-128.8 667.05,-128.8 667.05,-128.8"/>
<polygon fill="black" stroke="black" points="667.05,-125.3 657.05,-128.8 667.05,-132.3 667.05,-125.3"/>
</g>
<!-- DatePickerComponent -->
<g id="node2" class="node">
<title>DatePickerComponent</title>
<polygon fill="#ffffb3" stroke="black" points="880.53,-84.8 737.47,-84.8 737.47,-48.8 880.53,-48.8 880.53,-84.8"/>
<text text-anchor="middle" x="809" y="-62.6" font-family="Times,serif" font-size="14.00">DatePickerComponent</text>
</g>
<!-- DatePickerComponent&#45;&gt;IrccDsAngularFormComponentsModule -->
<g id="edge2" class="edge">
<title>DatePickerComponent&#45;&gt;IrccDsAngularFormComponentsModule</title>
<path fill="none" stroke="black" d="M834.67,-84.81C834.67,-100.85 834.67,-121.8 834.67,-121.8 834.67,-121.8 666.89,-121.8 666.89,-121.8"/>
<polygon fill="black" stroke="black" points="666.89,-118.3 656.89,-121.8 666.89,-125.3 666.89,-118.3"/>
</g>
<!-- ErrorComponent -->
<g id="node3" class="node">
<title>ErrorComponent</title>
<polygon fill="#ffffb3" stroke="black" points="719.37,-84.8 608.63,-84.8 608.63,-48.8 719.37,-48.8 719.37,-84.8"/>
<text text-anchor="middle" x="664" y="-62.6" font-family="Times,serif" font-size="14.00">ErrorComponent</text>
</g>
<!-- ErrorComponent&#45;&gt;IrccDsAngularFormComponentsModule -->
<g id="edge3" class="edge">
<title>ErrorComponent&#45;&gt;IrccDsAngularFormComponentsModule</title>
<path fill="none" stroke="black" d="M632.75,-84.91C632.75,-84.91 632.75,-103.79 632.75,-103.79"/>
<polygon fill="black" stroke="black" points="629.25,-103.79 632.75,-113.79 636.25,-103.79 629.25,-103.79"/>
</g>
<!-- InputComponent -->
<g id="node4" class="node">
<title>InputComponent</title>
<polygon fill="#ffffb3" stroke="black" points="590.38,-84.8 479.62,-84.8 479.62,-48.8 590.38,-48.8 590.38,-84.8"/>
<text text-anchor="middle" x="535" y="-62.6" font-family="Times,serif" font-size="14.00">InputComponent</text>
</g>
<!-- InputComponent&#45;&gt;IrccDsAngularFormComponentsModule -->
<g id="edge4" class="edge">
<title>InputComponent&#45;&gt;IrccDsAngularFormComponentsModule</title>
<path fill="none" stroke="black" d="M535,-84.91C535,-84.91 535,-103.79 535,-103.79"/>
<polygon fill="black" stroke="black" points="531.5,-103.79 535,-113.79 538.5,-103.79 531.5,-103.79"/>
</g>
<!-- RadioInputComponent -->
<g id="node5" class="node">
<title>RadioInputComponent</title>
<polygon fill="#ffffb3" stroke="black" points="461.32,-84.8 316.68,-84.8 316.68,-48.8 461.32,-48.8 461.32,-84.8"/>
<text text-anchor="middle" x="389" y="-62.6" font-family="Times,serif" font-size="14.00">RadioInputComponent</text>
</g>
<!-- RadioInputComponent&#45;&gt;IrccDsAngularFormComponentsModule -->
<g id="edge5" class="edge">
<title>RadioInputComponent&#45;&gt;IrccDsAngularFormComponentsModule</title>
<path fill="none" stroke="black" d="M437.12,-84.91C437.12,-84.91 437.12,-103.79 437.12,-103.79"/>
<polygon fill="black" stroke="black" points="433.62,-103.79 437.12,-113.79 440.62,-103.79 433.62,-103.79"/>
</g>
<!-- SelectComponent -->
<g id="node6" class="node">
<title>SelectComponent</title>
<polygon fill="#ffffb3" stroke="black" points="298.54,-84.8 183.46,-84.8 183.46,-48.8 298.54,-48.8 298.54,-84.8"/>
<text text-anchor="middle" x="241" y="-62.6" font-family="Times,serif" font-size="14.00">SelectComponent</text>
</g>
<!-- SelectComponent&#45;&gt;IrccDsAngularFormComponentsModule -->
<g id="edge6" class="edge">
<title>SelectComponent&#45;&gt;IrccDsAngularFormComponentsModule</title>
<path fill="none" stroke="black" d="M257.42,-84.81C257.42,-100.85 257.42,-121.8 257.42,-121.8 257.42,-121.8 402.85,-121.8 402.85,-121.8"/>
<polygon fill="black" stroke="black" points="402.85,-125.3 412.85,-121.8 402.85,-118.3 402.85,-125.3"/>
</g>
<!-- TextareaComponent -->
<g id="node7" class="node">
<title>TextareaComponent</title>
<polygon fill="#ffffb3" stroke="black" points="165.29,-84.8 34.71,-84.8 34.71,-48.8 165.29,-48.8 165.29,-84.8"/>
<text text-anchor="middle" x="100" y="-62.6" font-family="Times,serif" font-size="14.00">TextareaComponent</text>
</g>
<!-- TextareaComponent&#45;&gt;IrccDsAngularFormComponentsModule -->
<g id="edge7" class="edge">
<title>TextareaComponent&#45;&gt;IrccDsAngularFormComponentsModule</title>
<path fill="none" stroke="black" d="M161.52,-85.07C161.52,-103.36 161.52,-128.8 161.52,-128.8 161.52,-128.8 402.97,-128.8 402.97,-128.8"/>
<polygon fill="black" stroke="black" points="402.97,-132.3 412.97,-128.8 402.97,-125.3 402.97,-132.3"/>
</g>
<!-- CheckboxComponent  -->
<g id="node9" class="node">
<title>CheckboxComponent </title>
<polygon fill="#fb8072" stroke="black" points="1048.6,-214.8 907.4,-214.8 907.4,-178.8 1048.6,-178.8 1048.6,-214.8"/>
<text text-anchor="middle" x="978" y="-192.6" font-family="Times,serif" font-size="14.00">CheckboxComponent </text>
</g>
<!-- IrccDsAngularFormComponentsModule&#45;&gt;CheckboxComponent  -->
<g id="edge8" class="edge">
<title>IrccDsAngularFormComponentsModule&#45;&gt;CheckboxComponent </title>
<path fill="none" stroke="black" stroke-dasharray="5,2" d="M657.05,-135.8C786.38,-135.8 972.12,-135.8 972.12,-135.8 972.12,-135.8 972.12,-168.5 972.12,-168.5"/>
<polygon fill="black" stroke="black" points="968.63,-168.5 972.12,-178.5 975.63,-168.5 968.63,-168.5"/>
</g>
<!-- DatePickerComponent  -->
<g id="node10" class="node">
<title>DatePickerComponent </title>
<polygon fill="#fb8072" stroke="black" points="889.52,-214.8 742.48,-214.8 742.48,-178.8 889.52,-178.8 889.52,-214.8"/>
<text text-anchor="middle" x="816" y="-192.6" font-family="Times,serif" font-size="14.00">DatePickerComponent </text>
</g>
<!-- IrccDsAngularFormComponentsModule&#45;&gt;DatePickerComponent  -->
<g id="edge9" class="edge">
<title>IrccDsAngularFormComponentsModule&#45;&gt;DatePickerComponent </title>
<path fill="none" stroke="black" stroke-dasharray="5,2" d="M656.96,-142.8C721.92,-142.8 788.58,-142.8 788.58,-142.8 788.58,-142.8 788.58,-168.52 788.58,-168.52"/>
<polygon fill="black" stroke="black" points="785.08,-168.52 788.58,-178.52 792.08,-168.52 785.08,-168.52"/>
</g>
<!-- ErrorComponent  -->
<g id="node11" class="node">
<title>ErrorComponent </title>
<polygon fill="#fb8072" stroke="black" points="724.37,-214.8 609.63,-214.8 609.63,-178.8 724.37,-178.8 724.37,-214.8"/>
<text text-anchor="middle" x="667" y="-192.6" font-family="Times,serif" font-size="14.00">ErrorComponent </text>
</g>
<!-- IrccDsAngularFormComponentsModule&#45;&gt;ErrorComponent  -->
<g id="edge10" class="edge">
<title>IrccDsAngularFormComponentsModule&#45;&gt;ErrorComponent </title>
<path fill="none" stroke="black" stroke-dasharray="5,2" d="M633.37,-149.91C633.37,-149.91 633.37,-168.79 633.37,-168.79"/>
<polygon fill="black" stroke="black" points="629.87,-168.79 633.37,-178.79 636.87,-168.79 629.87,-168.79"/>
</g>
<!-- InputComponent  -->
<g id="node12" class="node">
<title>InputComponent </title>
<polygon fill="#fb8072" stroke="black" points="592.38,-214.8 477.62,-214.8 477.62,-178.8 592.38,-178.8 592.38,-214.8"/>
<text text-anchor="middle" x="535" y="-192.6" font-family="Times,serif" font-size="14.00">InputComponent </text>
</g>
<!-- IrccDsAngularFormComponentsModule&#45;&gt;InputComponent  -->
<g id="edge11" class="edge">
<title>IrccDsAngularFormComponentsModule&#45;&gt;InputComponent </title>
<path fill="none" stroke="black" stroke-dasharray="5,2" d="M535,-149.91C535,-149.91 535,-168.79 535,-168.79"/>
<polygon fill="black" stroke="black" points="531.5,-168.79 535,-178.79 538.5,-168.79 531.5,-168.79"/>
</g>
<!-- RadioInputComponent  -->
<g id="node13" class="node">
<title>RadioInputComponent </title>
<polygon fill="#fb8072" stroke="black" points="459.82,-214.8 312.18,-214.8 312.18,-178.8 459.82,-178.8 459.82,-214.8"/>
<text text-anchor="middle" x="386" y="-192.6" font-family="Times,serif" font-size="14.00">RadioInputComponent </text>
</g>
<!-- IrccDsAngularFormComponentsModule&#45;&gt;RadioInputComponent  -->
<g id="edge12" class="edge">
<title>IrccDsAngularFormComponentsModule&#45;&gt;RadioInputComponent </title>
<path fill="none" stroke="black" stroke-dasharray="5,2" d="M436.49,-149.91C436.49,-149.91 436.49,-168.79 436.49,-168.79"/>
<polygon fill="black" stroke="black" points="432.99,-168.79 436.49,-178.79 439.99,-168.79 432.99,-168.79"/>
</g>
<!-- SelectComponent  -->
<g id="node14" class="node">
<title>SelectComponent </title>
<polygon fill="#fb8072" stroke="black" points="294.54,-214.8 175.46,-214.8 175.46,-178.8 294.54,-178.8 294.54,-214.8"/>
<text text-anchor="middle" x="235" y="-192.6" font-family="Times,serif" font-size="14.00">SelectComponent </text>
</g>
<!-- IrccDsAngularFormComponentsModule&#45;&gt;SelectComponent  -->
<g id="edge13" class="edge">
<title>IrccDsAngularFormComponentsModule&#45;&gt;SelectComponent </title>
<path fill="none" stroke="black" stroke-dasharray="5,2" d="M412.89,-142.8C324.44,-142.8 220.33,-142.8 220.33,-142.8 220.33,-142.8 220.33,-168.52 220.33,-168.52"/>
<polygon fill="black" stroke="black" points="216.83,-168.52 220.33,-178.52 223.83,-168.52 216.83,-168.52"/>
</g>
<!-- TextareaComponent  -->
<g id="node15" class="node">
<title>TextareaComponent </title>
<polygon fill="#fb8072" stroke="black" points="157.79,-214.8 24.21,-214.8 24.21,-178.8 157.79,-178.8 157.79,-214.8"/>
<text text-anchor="middle" x="91" y="-192.6" font-family="Times,serif" font-size="14.00">TextareaComponent </text>
</g>
<!-- IrccDsAngularFormComponentsModule&#45;&gt;TextareaComponent  -->
<g id="edge14" class="edge">
<title>IrccDsAngularFormComponentsModule&#45;&gt;TextareaComponent </title>
<path fill="none" stroke="black" stroke-dasharray="5,2" d="M413.11,-135.8C283.31,-135.8 96.38,-135.8 96.38,-135.8 96.38,-135.8 96.38,-168.5 96.38,-168.5"/>
<polygon fill="black" stroke="black" points="92.88,-168.5 96.38,-178.5 99.88,-168.5 92.88,-168.5"/>
</g>
</g>
</svg>
