<svg width="21" height="24" viewBox="0 0 21 24" fill="none" xmlns="http://www.w3.org/2000/svg">
<path d="M18 0H3C1.3125 0 0 1.35938 0 3V21C0 22.6875 1.3125 24 3 24H18C19.6406 24 21 22.6875 21 21V3C21 1.35938 19.6406 0 18 0ZM19.5 21C19.5 21.8438 18.7969 22.5 18 22.5H3C2.15625 22.5 1.5 21.8438 1.5 21V3C1.5 2.20312 2.15625 1.5 3 1.5H18C18.7969 1.5 19.5 2.20312 19.5 3V21ZM12 18.75H9C8.57812 18.75 8.25 19.125 8.25 19.5C8.25 19.9219 8.57812 20.25 9 20.25H12C12.375 20.25 12.75 19.9219 12.75 19.5C12.75 19.125 12.375 18.75 12 18.75Z" fill="#161617"/>
</svg>
