<svg width="27" height="24" viewBox="0 0 27 24" fill="none" xmlns="http://www.w3.org/2000/svg">
<path d="M24 0H3C1.3125 0 0 1.35938 0 3V16.5C0 18.1875 1.3125 19.5 3 19.5H9.98438L9.09375 22.5H6.75C6.32812 22.5 6 22.875 6 23.25C6 23.6719 6.32812 24 6.75 24H20.25C20.625 24 21 23.6719 21 23.25C21 22.875 20.625 22.5 20.25 22.5H17.8594L16.9688 19.5H24C25.6406 19.5 27 18.1875 27 16.5V3C27 1.35938 25.6406 0 24 0ZM10.6406 22.5L11.5781 19.5H15.375L16.3125 22.5H10.6406ZM25.5 16.5C25.5 17.3438 24.7969 18 24 18H3C2.15625 18 1.5 17.3438 1.5 16.5V13.5H25.5V16.5ZM25.5 12H1.5V3C1.5 2.20312 2.15625 1.5 3 1.5H24C24.7969 1.5 25.5 2.20312 25.5 3V12Z" fill="#161617"/>
</svg>
