<?xml version="1.0" encoding="UTF-8" standalone="no"?>
<!DOCTYPE svg PUBLIC "-//W3C//DTD SVG 1.1//EN"
 "http://www.w3.org/Graphics/SVG/1.1/DTD/svg11.dtd">
<!-- Generated by graphviz version 5.0.0 (20220707.1540)
 -->
<!-- Title: dependencies Pages: 1 -->
<svg width="893pt" height="247pt"
 viewBox="0.00 0.00 893.00 246.80" xmlns="http://www.w3.org/2000/svg" xmlns:xlink="http://www.w3.org/1999/xlink">
<g id="graph0" class="graph" transform="scale(1 1) rotate(0) translate(4 242.8)">
<title>dependencies</title>
<polygon fill="white" stroke="transparent" points="-4,4 -4,-242.8 889,-242.8 889,4 -4,4"/>
<text text-anchor="middle" x="442.5" y="-8.2" font-family="sans-serif" font-size="14.00">dependencies</text>
<g id="clust1" class="cluster">
<title>cluster_IrccDsAngularLegacyOldModule</title>
<polygon fill="none" stroke="black" stroke-dasharray="1,5" points="8,-32.8 8,-230.8 877,-230.8 877,-32.8 8,-32.8"/>
</g>
<g id="clust2" class="cluster">
<title>cluster_IrccDsAngularLegacyOldModule_declarations</title>
<polygon fill="none" stroke="black" points="24,-40.8 24,-92.8 859,-92.8 859,-40.8 24,-40.8"/>
</g>
<g id="clust9" class="cluster">
<title>cluster_IrccDsAngularLegacyOldModule_exports</title>
<polygon fill="none" stroke="black" points="16,-170.8 16,-222.8 869,-222.8 869,-170.8 16,-170.8"/>
</g>
<!-- AutocompleteComponent -->
<g id="node1" class="node">
<title>AutocompleteComponent</title>
<polygon fill="#ffffb3" stroke="black" points="851.14,-84.8 690.86,-84.8 690.86,-48.8 851.14,-48.8 851.14,-84.8"/>
<text text-anchor="middle" x="771" y="-62.6" font-family="Times,serif" font-size="14.00">AutocompleteComponent</text>
</g>
<!-- IrccDsAngularLegacyOldModule -->
<g id="node6" class="node">
<title>IrccDsAngularLegacyOldModule</title>
<polygon fill="#8dd3c7" stroke="black" points="558.43,-149.8 555.43,-153.8 534.43,-153.8 531.43,-149.8 353.57,-149.8 353.57,-113.8 558.43,-113.8 558.43,-149.8"/>
<text text-anchor="middle" x="456" y="-127.6" font-family="Times,serif" font-size="14.00">IrccDsAngularLegacyOldModule</text>
</g>
<!-- AutocompleteComponent&#45;&gt;IrccDsAngularLegacyOldModule -->
<g id="edge1" class="edge">
<title>AutocompleteComponent&#45;&gt;IrccDsAngularLegacyOldModule</title>
<path fill="none" stroke="black" d="M799.86,-84.82C799.86,-102.17 799.86,-125.8 799.86,-125.8 799.86,-125.8 568.7,-125.8 568.7,-125.8"/>
<polygon fill="black" stroke="black" points="568.7,-122.3 558.7,-125.8 568.7,-129.3 568.7,-122.3"/>
</g>
<!-- ChipItemComponent -->
<g id="node2" class="node">
<title>ChipItemComponent</title>
<polygon fill="#ffffb3" stroke="black" points="673.21,-84.8 538.79,-84.8 538.79,-48.8 673.21,-48.8 673.21,-84.8"/>
<text text-anchor="middle" x="606" y="-62.6" font-family="Times,serif" font-size="14.00">ChipItemComponent</text>
</g>
<!-- ChipItemComponent&#45;&gt;IrccDsAngularLegacyOldModule -->
<g id="edge2" class="edge">
<title>ChipItemComponent&#45;&gt;IrccDsAngularLegacyOldModule</title>
<path fill="none" stroke="black" d="M548.68,-84.91C548.68,-84.91 548.68,-103.79 548.68,-103.79"/>
<polygon fill="black" stroke="black" points="545.18,-103.79 548.68,-113.79 552.18,-103.79 545.18,-103.79"/>
</g>
<!-- ChipListComponent -->
<g id="node3" class="node">
<title>ChipListComponent</title>
<polygon fill="#ffffb3" stroke="black" points="521.34,-84.8 390.66,-84.8 390.66,-48.8 521.34,-48.8 521.34,-84.8"/>
<text text-anchor="middle" x="456" y="-62.6" font-family="Times,serif" font-size="14.00">ChipListComponent</text>
</g>
<!-- ChipListComponent&#45;&gt;IrccDsAngularLegacyOldModule -->
<g id="edge3" class="edge">
<title>ChipListComponent&#45;&gt;IrccDsAngularLegacyOldModule</title>
<path fill="none" stroke="black" d="M456,-84.91C456,-84.91 456,-103.79 456,-103.79"/>
<polygon fill="black" stroke="black" points="452.5,-103.79 456,-113.79 459.5,-103.79 452.5,-103.79"/>
</g>
<!-- SearchInputComponent -->
<g id="node4" class="node">
<title>SearchInputComponent</title>
<polygon fill="#ffffb3" stroke="black" points="372.47,-84.8 223.53,-84.8 223.53,-48.8 372.47,-48.8 372.47,-84.8"/>
<text text-anchor="middle" x="298" y="-62.6" font-family="Times,serif" font-size="14.00">SearchInputComponent</text>
</g>
<!-- SearchInputComponent&#45;&gt;IrccDsAngularLegacyOldModule -->
<g id="edge4" class="edge">
<title>SearchInputComponent&#45;&gt;IrccDsAngularLegacyOldModule</title>
<path fill="none" stroke="black" d="M363.01,-84.91C363.01,-84.91 363.01,-103.79 363.01,-103.79"/>
<polygon fill="black" stroke="black" points="359.51,-103.79 363.01,-113.79 366.51,-103.79 359.51,-103.79"/>
</g>
<!-- SecondaryChipsComponent -->
<g id="node5" class="node">
<title>SecondaryChipsComponent</title>
<polygon fill="#ffffb3" stroke="black" points="205.6,-84.8 32.4,-84.8 32.4,-48.8 205.6,-48.8 205.6,-84.8"/>
<text text-anchor="middle" x="119" y="-62.6" font-family="Times,serif" font-size="14.00">SecondaryChipsComponent</text>
</g>
<!-- SecondaryChipsComponent&#45;&gt;IrccDsAngularLegacyOldModule -->
<g id="edge5" class="edge">
<title>SecondaryChipsComponent&#45;&gt;IrccDsAngularLegacyOldModule</title>
<path fill="none" stroke="black" d="M144.35,-84.82C144.35,-102.17 144.35,-125.8 144.35,-125.8 144.35,-125.8 343.52,-125.8 343.52,-125.8"/>
<polygon fill="black" stroke="black" points="343.52,-129.3 353.52,-125.8 343.52,-122.3 343.52,-129.3"/>
</g>
<!-- AutocompleteComponent  -->
<g id="node7" class="node">
<title>AutocompleteComponent </title>
<polygon fill="#fb8072" stroke="black" points="861.14,-214.8 696.86,-214.8 696.86,-178.8 861.14,-178.8 861.14,-214.8"/>
<text text-anchor="middle" x="779" y="-192.6" font-family="Times,serif" font-size="14.00">AutocompleteComponent </text>
</g>
<!-- IrccDsAngularLegacyOldModule&#45;&gt;AutocompleteComponent  -->
<g id="edge6" class="edge">
<title>IrccDsAngularLegacyOldModule&#45;&gt;AutocompleteComponent </title>
<path fill="none" stroke="black" stroke-dasharray="5,2" d="M558.68,-137.8C642.93,-137.8 748.39,-137.8 748.39,-137.8 748.39,-137.8 748.39,-168.78 748.39,-168.78"/>
<polygon fill="black" stroke="black" points="744.89,-168.78 748.39,-178.78 751.89,-168.78 744.89,-168.78"/>
</g>
<!-- ChipItemComponent  -->
<g id="node8" class="node">
<title>ChipItemComponent </title>
<polygon fill="#fb8072" stroke="black" points="678.71,-214.8 541.29,-214.8 541.29,-178.8 678.71,-178.8 678.71,-214.8"/>
<text text-anchor="middle" x="610" y="-192.6" font-family="Times,serif" font-size="14.00">ChipItemComponent </text>
</g>
<!-- IrccDsAngularLegacyOldModule&#45;&gt;ChipItemComponent  -->
<g id="edge7" class="edge">
<title>IrccDsAngularLegacyOldModule&#45;&gt;ChipItemComponent </title>
<path fill="none" stroke="black" stroke-dasharray="5,2" d="M549.8,-149.91C549.8,-149.91 549.8,-168.79 549.8,-168.79"/>
<polygon fill="black" stroke="black" points="546.3,-168.79 549.8,-178.79 553.3,-168.79 546.3,-168.79"/>
</g>
<!-- ChipListComponent  -->
<g id="node9" class="node">
<title>ChipListComponent </title>
<polygon fill="#fb8072" stroke="black" points="522.84,-214.8 389.16,-214.8 389.16,-178.8 522.84,-178.8 522.84,-214.8"/>
<text text-anchor="middle" x="456" y="-192.6" font-family="Times,serif" font-size="14.00">ChipListComponent </text>
</g>
<!-- IrccDsAngularLegacyOldModule&#45;&gt;ChipListComponent  -->
<g id="edge8" class="edge">
<title>IrccDsAngularLegacyOldModule&#45;&gt;ChipListComponent </title>
<path fill="none" stroke="black" stroke-dasharray="5,2" d="M456,-149.91C456,-149.91 456,-168.79 456,-168.79"/>
<polygon fill="black" stroke="black" points="452.5,-168.79 456,-178.79 459.5,-168.79 452.5,-168.79"/>
</g>
<!-- SearchInputComponent  -->
<g id="node10" class="node">
<title>SearchInputComponent </title>
<polygon fill="#fb8072" stroke="black" points="371.47,-214.8 218.53,-214.8 218.53,-178.8 371.47,-178.8 371.47,-214.8"/>
<text text-anchor="middle" x="295" y="-192.6" font-family="Times,serif" font-size="14.00">SearchInputComponent </text>
</g>
<!-- IrccDsAngularLegacyOldModule&#45;&gt;SearchInputComponent  -->
<g id="edge9" class="edge">
<title>IrccDsAngularLegacyOldModule&#45;&gt;SearchInputComponent </title>
<path fill="none" stroke="black" stroke-dasharray="5,2" d="M362.39,-149.91C362.39,-149.91 362.39,-168.79 362.39,-168.79"/>
<polygon fill="black" stroke="black" points="358.89,-168.79 362.39,-178.79 365.89,-168.79 358.89,-168.79"/>
</g>
<!-- SecondaryChipsComponent  -->
<g id="node11" class="node">
<title>SecondaryChipsComponent </title>
<polygon fill="#fb8072" stroke="black" points="200.1,-214.8 23.9,-214.8 23.9,-178.8 200.1,-178.8 200.1,-214.8"/>
<text text-anchor="middle" x="112" y="-192.6" font-family="Times,serif" font-size="14.00">SecondaryChipsComponent </text>
</g>
<!-- IrccDsAngularLegacyOldModule&#45;&gt;SecondaryChipsComponent  -->
<g id="edge10" class="edge">
<title>IrccDsAngularLegacyOldModule&#45;&gt;SecondaryChipsComponent </title>
<path fill="none" stroke="black" stroke-dasharray="5,2" d="M353.11,-137.8C244.37,-137.8 88.4,-137.8 88.4,-137.8 88.4,-137.8 88.4,-168.78 88.4,-168.78"/>
<polygon fill="black" stroke="black" points="84.9,-168.78 88.4,-178.78 91.9,-168.78 84.9,-168.78"/>
</g>
</g>
</svg>
