<?xml version="1.0" encoding="UTF-8" standalone="no"?>
<!DOCTYPE svg PUBLIC "-//W3C//DTD SVG 1.1//EN"
 "http://www.w3.org/Graphics/SVG/1.1/DTD/svg11.dtd">
<!-- Generated by graphviz version 5.0.0 (20220707.1540)
 -->
<!-- Title: dependencies Pages: 1 -->
<svg width="684pt" height="247pt"
 viewBox="0.00 0.00 684.00 246.80" xmlns="http://www.w3.org/2000/svg" xmlns:xlink="http://www.w3.org/1999/xlink">
<g id="graph0" class="graph" transform="scale(1 1) rotate(0) translate(4 242.8)">
<title>dependencies</title>
<polygon fill="white" stroke="transparent" points="-4,4 -4,-242.8 680,-242.8 680,4 -4,4"/>
<text text-anchor="middle" x="338" y="-8.2" font-family="sans-serif" font-size="14.00">dependencies</text>
<g id="clust1" class="cluster">
<title>cluster_IrccDsAngularHeaderFooterModule</title>
<polygon fill="none" stroke="black" stroke-dasharray="1,5" points="8,-32.8 8,-230.8 668,-230.8 668,-32.8 8,-32.8"/>
</g>
<g id="clust2" class="cluster">
<title>cluster_IrccDsAngularHeaderFooterModule_declarations</title>
<polygon fill="none" stroke="black" points="23,-40.8 23,-92.8 655,-92.8 655,-40.8 23,-40.8"/>
</g>
<g id="clust8" class="cluster">
<title>cluster_IrccDsAngularHeaderFooterModule_exports</title>
<polygon fill="none" stroke="black" points="16,-170.8 16,-222.8 660,-222.8 660,-170.8 16,-170.8"/>
</g>
<!-- FooterComponent -->
<g id="node1" class="node">
<title>FooterComponent</title>
<polygon fill="#ffffb3" stroke="black" points="646.88,-84.8 529.12,-84.8 529.12,-48.8 646.88,-48.8 646.88,-84.8"/>
<text text-anchor="middle" x="588" y="-62.6" font-family="Times,serif" font-size="14.00">FooterComponent</text>
</g>
<!-- IrccDsAngularHeaderFooterModule -->
<g id="node5" class="node">
<title>IrccDsAngularHeaderFooterModule</title>
<polygon fill="#8dd3c7" stroke="black" points="409.7,-149.8 406.7,-153.8 385.7,-153.8 382.7,-149.8 190.3,-149.8 190.3,-113.8 409.7,-113.8 409.7,-149.8"/>
<text text-anchor="middle" x="300" y="-127.6" font-family="Times,serif" font-size="14.00">IrccDsAngularHeaderFooterModule</text>
</g>
<!-- FooterComponent&#45;&gt;IrccDsAngularHeaderFooterModule -->
<g id="edge1" class="edge">
<title>FooterComponent&#45;&gt;IrccDsAngularHeaderFooterModule</title>
<path fill="none" stroke="black" d="M608.06,-84.82C608.06,-102.17 608.06,-125.8 608.06,-125.8 608.06,-125.8 419.91,-125.8 419.91,-125.8"/>
<polygon fill="black" stroke="black" points="419.91,-122.3 409.91,-125.8 419.91,-129.3 419.91,-122.3"/>
</g>
<!-- HeaderComponent -->
<g id="node2" class="node">
<title>HeaderComponent</title>
<polygon fill="#ffffb3" stroke="black" points="510.75,-84.8 389.25,-84.8 389.25,-48.8 510.75,-48.8 510.75,-84.8"/>
<text text-anchor="middle" x="450" y="-62.6" font-family="Times,serif" font-size="14.00">HeaderComponent</text>
</g>
<!-- HeaderComponent&#45;&gt;IrccDsAngularHeaderFooterModule -->
<g id="edge2" class="edge">
<title>HeaderComponent&#45;&gt;IrccDsAngularHeaderFooterModule</title>
<path fill="none" stroke="black" d="M399.49,-84.91C399.49,-84.91 399.49,-103.79 399.49,-103.79"/>
<polygon fill="black" stroke="black" points="395.99,-103.79 399.49,-113.79 402.99,-103.79 395.99,-103.79"/>
</g>
<!-- HiddenNavComponent -->
<g id="node3" class="node">
<title>HiddenNavComponent</title>
<polygon fill="#ffffb3" stroke="black" points="370.87,-84.8 225.13,-84.8 225.13,-48.8 370.87,-48.8 370.87,-84.8"/>
<text text-anchor="middle" x="298" y="-62.6" font-family="Times,serif" font-size="14.00">HiddenNavComponent</text>
</g>
<!-- HiddenNavComponent&#45;&gt;IrccDsAngularHeaderFooterModule -->
<g id="edge3" class="edge">
<title>HiddenNavComponent&#45;&gt;IrccDsAngularHeaderFooterModule</title>
<path fill="none" stroke="black" d="M298,-84.91C298,-84.91 298,-103.79 298,-103.79"/>
<polygon fill="black" stroke="black" points="294.5,-103.79 298,-113.79 301.5,-103.79 294.5,-103.79"/>
</g>
<!-- LanguageSwitchComponent -->
<g id="node4" class="node">
<title>LanguageSwitchComponent</title>
<polygon fill="#ffffb3" stroke="black" points="206.91,-84.8 31.09,-84.8 31.09,-48.8 206.91,-48.8 206.91,-84.8"/>
<text text-anchor="middle" x="119" y="-62.6" font-family="Times,serif" font-size="14.00">LanguageSwitchComponent</text>
</g>
<!-- LanguageSwitchComponent&#45;&gt;IrccDsAngularHeaderFooterModule -->
<g id="edge4" class="edge">
<title>LanguageSwitchComponent&#45;&gt;IrccDsAngularHeaderFooterModule</title>
<path fill="none" stroke="black" d="M198.43,-84.91C198.43,-84.91 198.43,-103.79 198.43,-103.79"/>
<polygon fill="black" stroke="black" points="194.93,-103.79 198.43,-113.79 201.93,-103.79 194.93,-103.79"/>
</g>
<!-- FooterComponent  -->
<g id="node6" class="node">
<title>FooterComponent </title>
<polygon fill="#fb8072" stroke="black" points="651.88,-214.8 530.12,-214.8 530.12,-178.8 651.88,-178.8 651.88,-214.8"/>
<text text-anchor="middle" x="591" y="-192.6" font-family="Times,serif" font-size="14.00">FooterComponent </text>
</g>
<!-- IrccDsAngularHeaderFooterModule&#45;&gt;FooterComponent  -->
<g id="edge5" class="edge">
<title>IrccDsAngularHeaderFooterModule&#45;&gt;FooterComponent </title>
<path fill="none" stroke="black" stroke-dasharray="5,2" d="M409.88,-137.8C484.31,-137.8 569.19,-137.8 569.19,-137.8 569.19,-137.8 569.19,-168.78 569.19,-168.78"/>
<polygon fill="black" stroke="black" points="565.69,-168.78 569.19,-178.78 572.69,-168.78 565.69,-168.78"/>
</g>
<!-- HeaderComponent  -->
<g id="node7" class="node">
<title>HeaderComponent </title>
<polygon fill="#fb8072" stroke="black" points="512.75,-214.8 387.25,-214.8 387.25,-178.8 512.75,-178.8 512.75,-214.8"/>
<text text-anchor="middle" x="450" y="-192.6" font-family="Times,serif" font-size="14.00">HeaderComponent </text>
</g>
<!-- IrccDsAngularHeaderFooterModule&#45;&gt;HeaderComponent  -->
<g id="edge6" class="edge">
<title>IrccDsAngularHeaderFooterModule&#45;&gt;HeaderComponent </title>
<path fill="none" stroke="black" stroke-dasharray="5,2" d="M398.61,-149.91C398.61,-149.91 398.61,-168.79 398.61,-168.79"/>
<polygon fill="black" stroke="black" points="395.11,-168.79 398.61,-178.79 402.11,-168.79 395.11,-168.79"/>
</g>
<!-- HiddenNavComponent  -->
<g id="node8" class="node">
<title>HiddenNavComponent </title>
<polygon fill="#fb8072" stroke="black" points="369.87,-214.8 220.13,-214.8 220.13,-178.8 369.87,-178.8 369.87,-214.8"/>
<text text-anchor="middle" x="295" y="-192.6" font-family="Times,serif" font-size="14.00">HiddenNavComponent </text>
</g>
<!-- IrccDsAngularHeaderFooterModule&#45;&gt;HiddenNavComponent  -->
<g id="edge7" class="edge">
<title>IrccDsAngularHeaderFooterModule&#45;&gt;HiddenNavComponent </title>
<path fill="none" stroke="black" stroke-dasharray="5,2" d="M295,-149.91C295,-149.91 295,-168.79 295,-168.79"/>
<polygon fill="black" stroke="black" points="291.5,-168.79 295,-178.79 298.5,-168.79 291.5,-168.79"/>
</g>
<!-- LanguageSwitchComponent  -->
<g id="node9" class="node">
<title>LanguageSwitchComponent </title>
<polygon fill="#fb8072" stroke="black" points="202.41,-214.8 23.59,-214.8 23.59,-178.8 202.41,-178.8 202.41,-214.8"/>
<text text-anchor="middle" x="113" y="-192.6" font-family="Times,serif" font-size="14.00">LanguageSwitchComponent </text>
</g>
<!-- IrccDsAngularHeaderFooterModule&#45;&gt;LanguageSwitchComponent  -->
<g id="edge8" class="edge">
<title>IrccDsAngularHeaderFooterModule&#45;&gt;LanguageSwitchComponent </title>
<path fill="none" stroke="black" stroke-dasharray="5,2" d="M196.3,-149.91C196.3,-149.91 196.3,-168.79 196.3,-168.79"/>
<polygon fill="black" stroke="black" points="192.8,-168.79 196.3,-178.79 199.8,-168.79 192.8,-168.79"/>
</g>
</g>
</svg>
