<svg width="80" height="80" viewBox="0 0 80 80" fill="none" xmlns="http://www.w3.org/2000/svg">
<g clip-path="url(#clip0_6698_40224)">
<circle cx="40" cy="40" r="35" stroke="#F5F5F7" stroke-width="10"/>
<mask id="path-2-inside-1_6698_40224" fill="white">
<path d="M80 40C80 34.7471 78.9654 29.5457 76.9552 24.6927C74.945 19.8396 71.9986 15.4301 68.2843 11.7157C64.5699 8.00138 60.1604 5.05501 55.3073 3.04482C50.4543 1.03463 45.2529 -2.2961e-07 40 0L40 10.0051C43.939 10.0051 47.8394 10.7809 51.4786 12.2883C55.1177 13.7957 58.4243 16.0051 61.2096 18.7904C63.9949 21.5757 66.2043 24.8823 67.7117 28.5214C69.2191 32.1606 69.9949 36.061 69.9949 40H80Z"/>
</mask>
<path d="M80 40C80 34.7471 78.9654 29.5457 76.9552 24.6927C74.945 19.8396 71.9986 15.4301 68.2843 11.7157C64.5699 8.00138 60.1604 5.05501 55.3073 3.04482C50.4543 1.03463 45.2529 -2.2961e-07 40 0L40 10.0051C43.939 10.0051 47.8394 10.7809 51.4786 12.2883C55.1177 13.7957 58.4243 16.0051 61.2096 18.7904C63.9949 21.5757 66.2043 24.8823 67.7117 28.5214C69.2191 32.1606 69.9949 36.061 69.9949 40H80Z" stroke="#4974F5" stroke-width="20" mask="url(#path-2-inside-1_6698_40224)"/>
</g>
<defs>
<clipPath id="clip0_6698_40224">
<rect width="80" height="80" fill="white"/>
</clipPath>
</defs>
</svg>
